<svg xmlns="http://www.w3.org/2000/svg" xmlns:xlink="http://www.w3.org/1999/xlink" width="33" height="24" viewBox="0 0 33 24"><defs><path id="3mcja" d="M945.57 1189.4c0-.442.351-.8.785-.8.434 0 .785.358.785.8 0 .442-.351.8-.785.8a.793.793 0 0 1-.785-.8zm3.14 0c0-.442.351-.8.785-.8.434 0 .785.358.785.8 0 .442-.351.8-.785.8a.793.793 0 0 1-.785-.8zm3.15 0c0-.442.351-.8.785-.8.434 0 .785.358.785.8 0 .442-.351.8-.785.8a.793.793 0 0 1-.785-.8zm3.14 0c0-.442.351-.8.785-.8.434 0 .785.358.785.8 0 .442-.351.8-.785.8a.793.793 0 0 1-.785-.8zm-7.86 1.6c0-.442.351-.8.785-.8.434 0 .785.358.785.8 0 .442-.351.8-.785.8a.793.793 0 0 1-.785-.8zm3.14 0c0-.442.354-.8.79-.8.436 0 .79.358.79.8 0 .442-.354.8-.79.8a.795.795 0 0 1-.79-.8zm3.15 0c0-.442.351-.8.785-.8.434 0 .785.358.785.8 0 .442-.351.8-.785.8a.793.793 0 0 1-.785-.8zm1.57 1.6c0-.442.351-.8.785-.8.434 0 .785.358.785.8 0 .442-.351.8-.785.8a.793.793 0 0 1-.785-.8zm-3.14 0c0-.442.351-.8.785-.8.434 0 .785.358.785.8 0 .442-.351.8-.785.8a.793.793 0 0 1-.785-.8zm-3.15 0c0-.442.351-.8.785-.8.434 0 .785.358.785.8 0 .442-.351.8-.785.8a.793.793 0 0 1-.785-.8zm-3.14 0c0-.442.351-.8.785-.8.434 0 .785.358.785.8 0 .442-.351.8-.785.8a.793.793 0 0 1-.785-.8zm1.57 1.6c0-.442.351-.8.785-.8.434 0 .785.358.785.8 0 .442-.351.8-.785.8a.793.793 0 0 1-.785-.8zm3.14 0c0-.442.354-.8.79-.8.436 0 .79.358.79.8 0 .442-.354.8-.79.8a.795.795 0 0 1-.79-.8zm3.15 0c0-.442.351-.8.785-.8.434 0 .785.358.785.8 0 .442-.351.8-.785.8a.793.793 0 0 1-.785-.8zm1.57 1.6c0-.442.351-.8.785-.8.434 0 .785.358.785.8 0 .442-.351.8-.785.8a.793.793 0 0 1-.785-.8zm-3.14 0c0-.442.351-.8.785-.8.434 0 .785.358.785.8 0 .442-.351.8-.785.8a.793.793 0 0 1-.785-.8zm-3.15 0c0-.442.351-.8.785-.8.434 0 .785.358.785.8 0 .442-.351.8-.785.8a.793.793 0 0 1-.785-.8zm-3.14 0c0-.442.351-.8.785-.8.434 0 .785.358.785.8 0 .442-.351.8-.785.8a.793.793 0 0 1-.785-.8z"/><path id="3mcjb" d="M944 1189.4a2.4 2.4 0 0 1 2.4-2.4h28.2a2.4 2.4 0 0 1 2.4 2.4v19.2a2.4 2.4 0 0 1-2.4 2.4h-28.2a2.4 2.4 0 0 1-2.4-2.4z"/><path id="3mcjd" d="M944 1188.6v-1.6h33v1.6zm0 3.2v-1.6h33v1.6zm0 3.2v-1.6h33v1.6zm0 3.2v-1.6h33v1.6zm0 3.2v-1.6h33v1.6zm0 3.2v-1.6h33v1.6zm0 3.2v-1.6h33v1.6zm0 3.2v-1.6h33v1.6z"/><path id="3mcje" d="M944 1198.2V1187h14.14v11.2z"/><mask id="3mcjg" width="2" height="2" x="-1" y="-1"><path fill="#fff" d="M945 1188h12v9h-12z"/><use xlink:href="#3mcja"/></mask><filter id="3mcjf" width="32" height="31" x="935" y="1178" filterUnits="userSpaceOnUse"><feOffset dy="2" in="SourceGraphic" result="FeOffset1415Out"/><feGaussianBlur in="FeOffset1415Out" result="FeGaussianBlur1416Out" stdDeviation="0 0"/></filter><linearGradient id="3mcjh" x1="951.07" x2="951.07" y1="1188.6" y2="1196.6" gradientUnits="userSpaceOnUse"><stop offset="0" stop-color="#fff"/><stop offset="1" stop-color="#f0f0f0"/></linearGradient><clipPath id="3mcjc"><use xlink:href="#3mcjb"/></clipPath></defs><g><g transform="translate(-944 -1187)"><g><use fill="#fff" xlink:href="#3mcjb"/></g><g clip-path="url(#3mcjc)"><use fill="#f05a5a" xlink:href="#3mcjd"/></g><g clip-path="url(#3mcjc)"><use fill="#3b6cad" xlink:href="#3mcje"/></g><g clip-path="url(#3mcjc)"><g filter="url(#3mcjf)"><use fill="none" stroke-opacity=".06" stroke-width="0" mask="url(&quot;#3mcjg&quot;)" xlink:href="#3mcja"/><use fill-opacity=".06" xlink:href="#3mcja"/></g><use fill="url(#3mcjh)" xlink:href="#3mcja"/></g></g></g></svg>