<svg xmlns="http://www.w3.org/2000/svg" xmlns:xlink="http://www.w3.org/1999/xlink" width="22" height="16" viewBox="0 0 22 16"><defs><path id="6nnya" d="M541.05 317.605a.53.53 0 0 1 .525-.535c.29 0 .525.24.525.535a.53.53 0 0 1-.525.535.53.53 0 0 1-.525-.535zm2.1 0c0-.295.233-.535.52-.535.287 0 .52.24.52.535a.528.528 0 0 1-.52.535.528.528 0 0 1-.52-.535zm2.09 0a.53.53 0 0 1 .525-.535c.29 0 .525.24.525.535a.53.53 0 0 1-.525.535.53.53 0 0 1-.525-.535zm2.1 0c0-.295.233-.535.52-.535.287 0 .52.24.52.535a.528.528 0 0 1-.52.535.528.528 0 0 1-.52-.535zm-5.24 1.065c0-.293.235-.53.525-.53.29 0 .525.237.525.53 0 .293-.235.53-.525.53a.528.528 0 0 1-.525-.53zm2.09 0c0-.293.235-.53.525-.53.29 0 .525.237.525.53 0 .293-.235.53-.525.53a.528.528 0 0 1-.525-.53zm2.1 0c0-.293.235-.53.525-.53.29 0 .525.237.525.53 0 .293-.235.53-.525.53a.528.528 0 0 1-.525-.53zm1.05 1.065c0-.295.233-.535.52-.535.287 0 .52.24.52.535a.528.528 0 0 1-.52.535.528.528 0 0 1-.52-.535zm-2.1 0a.53.53 0 0 1 .525-.535c.29 0 .525.24.525.535a.53.53 0 0 1-.525.535.53.53 0 0 1-.525-.535zm-2.09 0c0-.295.233-.535.52-.535.287 0 .52.24.52.535a.528.528 0 0 1-.52.535.528.528 0 0 1-.52-.535zm-2.1 0a.53.53 0 0 1 .525-.535c.29 0 .525.24.525.535a.53.53 0 0 1-.525.535.53.53 0 0 1-.525-.535zm1.05 1.07a.53.53 0 0 1 .525-.535c.29 0 .525.24.525.535a.53.53 0 0 1-.525.535.53.53 0 0 1-.525-.535zm2.09 0a.53.53 0 0 1 .525-.535c.29 0 .525.24.525.535a.53.53 0 0 1-.525.535.53.53 0 0 1-.525-.535zm2.1 0a.53.53 0 0 1 .525-.535c.29 0 .525.24.525.535a.53.53 0 0 1-.525.535.53.53 0 0 1-.525-.535zm1.05 1.065c0-.293.233-.53.52-.53.287 0 .52.237.52.53 0 .293-.233.53-.52.53a.525.525 0 0 1-.52-.53zm-2.1 0c0-.293.235-.53.525-.53.29 0 .525.237.525.53 0 .293-.235.53-.525.53a.528.528 0 0 1-.525-.53zm-2.09 0c0-.293.233-.53.52-.53.287 0 .52.237.52.53 0 .293-.233.53-.52.53a.525.525 0 0 1-.52-.53zm-2.1 0c0-.293.235-.53.525-.53.29 0 .525.237.525.53 0 .293-.235.53-.525.53a.528.528 0 0 1-.525-.53z"/><path id="6nnyb" d="M540 317.6a1.6 1.6 0 0 1 1.6-1.6h18.8a1.6 1.6 0 0 1 1.6 1.6v12.8a1.6 1.6 0 0 1-1.6 1.6h-18.8a1.6 1.6 0 0 1-1.6-1.6z"/><path id="6nnyd" d="M540 317.07V316h22v1.07zm0 2.13v-1.07h22v1.07zm0 2.13v-1.06h22v1.06zm0 2.14v-1.07h22v1.07zm0 2.13v-1.07h22v1.07zm0 2.13v-1.06h22v1.06zm0 2.14v-1.07h22v1.07zm0 2.13v-1.07h22V332z"/><path id="6nnye" d="M540 323.47V316h9.43v7.47z"/><mask id="6nnyg" width="2" height="2" x="-1" y="-1"><path fill="#fff" d="M541 317h8v6h-8z"/><use xlink:href="#6nnya"/></mask><filter id="6nnyf" width="28" height="27" x="531" y="307" filterUnits="userSpaceOnUse"><feOffset dy="1" in="SourceGraphic" result="FeOffset1315Out"/><feGaussianBlur in="FeOffset1315Out" result="FeGaussianBlur1316Out" stdDeviation="0 0"/></filter><linearGradient id="6nnyh" x1="544.71" x2="544.71" y1="317.07" y2="322.4" gradientUnits="userSpaceOnUse"><stop offset="0" stop-color="#fff"/><stop offset="1" stop-color="#f0f0f0"/></linearGradient><clipPath id="6nnyc"><use xlink:href="#6nnyb"/></clipPath></defs><g><g transform="translate(-540 -316)"><g><use fill="#fff" xlink:href="#6nnyb"/></g><g clip-path="url(#6nnyc)"><use fill="#a6a6a6" xlink:href="#6nnyd"/></g><g clip-path="url(#6nnyc)"><use fill="#5e5e5e" xlink:href="#6nnye"/></g><g clip-path="url(#6nnyc)"><g filter="url(#6nnyf)"><use fill="none" stroke-opacity=".06" stroke-width="0" mask="url(&quot;#6nnyg&quot;)" xlink:href="#6nnya"/><use fill-opacity=".06" xlink:href="#6nnya"/></g><use fill="url(#6nnyh)" xlink:href="#6nnya"/></g></g></g></svg>