<svg width="22" height="20" viewBox="0 0 22 20" fill="none" xmlns="http://www.w3.org/2000/svg">
<path d="M20.3335 13.9998H1.66683C0.933496 13.9998 0.333496 13.3998 0.333496 12.6665C0.333496 11.9332 0.933496 11.3332 1.66683 11.3332H20.3335C21.0668 11.3332 21.6668 11.9332 21.6668 12.6665C21.6668 13.3998 21.0668 13.9998 20.3335 13.9998ZM20.3335 16.6665H1.66683C0.933496 16.6665 0.333496 17.2665 0.333496 17.9998C0.333496 18.7332 0.933496 19.3332 1.66683 19.3332H20.3335C21.0668 19.3332 21.6668 18.7332 21.6668 17.9998C21.6668 17.2665 21.0668 16.6665 20.3335 16.6665ZM15.0002 8.66651L21.1068 4.33317C21.4535 4.07984 21.6668 3.67984 21.6668 3.25317C21.6668 2.17317 20.4402 1.53317 19.5602 2.15984L15.0002 5.39984L8.33349 0.666504L0.973496 5.1465C0.573496 5.39984 0.333496 5.82651 0.333496 6.29317C0.333496 7.33317 1.46683 7.97317 2.36016 7.42651L8.22683 3.85317L15.0002 8.66651Z" fill="#7E839E"/>
</svg>
