<svg width="88" height="108" viewBox="0 0 88 108" fill="none" xmlns="http://www.w3.org/2000/svg">
<path fill-rule="evenodd" clip-rule="evenodd" d="M82.2764 45.0057C82.2764 21.0464 64.145 5.74086 44 5.74086C23.855 5.74086 5.72358 21.0464 5.72358 45.0057C5.72358 52.2402 8.52401 60.6431 14.8768 70.3468C21.2018 80.0081 30.8389 90.6345 43.9726 102.223C57.1351 90.6334 66.7862 80.0061 73.1178 70.3445C79.4763 60.642 82.2764 52.2397 82.2764 45.0057ZM40.315 106.642C13.475 82.9861 0 62.4591 0 45.0057C0 17.673 20.9 0 44 0C67.1 0 88 17.673 88 45.0057C88 62.4591 74.525 82.9861 47.63 106.642C45.54 108.453 42.405 108.453 40.315 106.642Z" fill="#000000"/>
<path fill-rule="evenodd" clip-rule="evenodd" d="M41.1938 25.7313L33.4277 62.2687H54.675L48.0039 25.7313H41.1938ZM38.8623 20C37.5031 20 36.3293 20.9475 36.0478 22.2721L27.0635 64.5407C26.6847 66.3228 28.0493 68 29.8779 68H58.1223C59.9173 68 61.2739 66.3807 60.9527 64.6215L53.2351 22.3529C52.9863 20.9904 51.795 20 50.4047 20H38.8623Z" fill="#000"/>
</svg>
