<svg width="29" height="29" viewBox="0 0 29 29" fill="none" xmlns="http://www.w3.org/2000/svg">
<rect x="10.5454" y="7.03027" width="7.0303" height="7.0303" fill="white"/>
<path d="M14.4998 2.41675C9.82359 2.41675 6.0415 6.19883 6.0415 10.8751C6.0415 15.9138 11.3823 22.8618 13.5815 25.508C14.0648 26.088 14.9469 26.088 15.4303 25.508C17.6173 22.8618 22.9582 15.9138 22.9582 10.8751C22.9582 6.19883 19.1761 2.41675 14.4998 2.41675ZM14.4998 13.8959C12.8323 13.8959 11.479 12.5426 11.479 10.8751C11.479 9.20758 12.8323 7.85425 14.4998 7.85425C16.1673 7.85425 17.5207 9.20758 17.5207 10.8751C17.5207 12.5426 16.1673 13.8959 14.4998 13.8959Z" fill="#FF0F54"/>
</svg>
