<svg width="34" height="34" viewBox="0 0 34 34" fill="none" xmlns="http://www.w3.org/2000/svg">
<rect x="12.3638" y="8.24219" width="8.24242" height="8.24242" fill="white"/>
<path d="M17.0002 2.8335C11.5177 2.8335 7.0835 7.26766 7.0835 12.7502C7.0835 18.6577 13.3452 26.8035 15.9235 29.906C16.4902 30.586 17.5243 30.586 18.091 29.906C20.6552 26.8035 26.9168 18.6577 26.9168 12.7502C26.9168 7.26766 22.4827 2.8335 17.0002 2.8335ZM17.0002 16.2918C15.0452 16.2918 13.4585 14.7052 13.4585 12.7502C13.4585 10.7952 15.0452 9.2085 17.0002 9.2085C18.9552 9.2085 20.5418 10.7952 20.5418 12.7502C20.5418 14.7052 18.9552 16.2918 17.0002 16.2918Z" fill="#673ab7"/>
</svg>
